<?xml version="1.0" encoding="UTF-8" standalone="no"?><!-- Generator: Gravit.io --><svg xmlns="http://www.w3.org/2000/svg" xmlns:xlink="http://www.w3.org/1999/xlink" style="isolation:isolate" viewBox="0 0 595.276 425.197" width="595.276pt" height="425.197pt"><defs><clipPath id="_clipPath_xJGWAV92NUNqzH3rvoHzobPhKxpArPWh"><rect width="595.276" height="425.197"/></clipPath></defs><g clip-path="url(#_clipPath_xJGWAV92NUNqzH3rvoHzobPhKxpArPWh)"><g><mask id="_mask_a9SrU9cqdFsqopQXIgMHN3P9dBg2b4cV" x="-200%" y="-200%" width="400%" height="400%"><rect x="-200%" y="-200%" width="400%" height="400%" style="fill:white;"/><path d=" M 85.837 167.343 L 125.313 167.343 L 125.313 340.412 L 85.531 340.412 L 85.837 167.343 Z " fill="white" stroke="none"/></mask><path d=" M 85.837 167.343 L 125.313 167.343 L 125.313 340.412 L 85.531 340.412 L 85.837 167.343 Z " fill="white" mask="url(#_mask_a9SrU9cqdFsqopQXIgMHN3P9dBg2b4cV)" vector-effect="non-scaling-stroke" stroke-width="1.5" stroke="white" stroke-linejoin="miter" stroke-linecap="butt" stroke-miterlimit="4"/><path d=" M 85.837 167.343 L 125.313 167.343 L 125.313 340.412 L 85.531 340.412 L 85.837 167.343 Z " fill="white"/><path d=" M 296.129 11.141 L 153.445 138.19 L 182.079 165.667 L 296.129 63.917 L 296.129 11.141 Z  M 296.129 11.141 L 438.812 138.19 L 410.178 165.667 L 296.129 63.917 L 296.129 11.141 Z " fill-rule="evenodd" fill="white"/><g><mask id="_mask_ZcTygMzqgfy3H4XOo00Jh9RFkrkr3wwm" x="-200%" y="-200%" width="400%" height="400%"><rect x="-200%" y="-200%" width="400%" height="400%" style="fill:white;"/><path d=" M 296.129 196.154 L 275.03 196.154 L 275.03 339.9 L 296.129 339.9" fill="white" stroke="none"/></mask><path d=" M 296.129 196.154 L 275.03 196.154 L 275.03 339.9 L 296.129 339.9" fill="white" mask="url(#_mask_ZcTygMzqgfy3H4XOo00Jh9RFkrkr3wwm)" vector-effect="non-scaling-stroke" stroke-width="1.5" stroke="white" stroke-linejoin="miter" stroke-linecap="butt" stroke-miterlimit="4"/><path d=" M 296.129 196.154 L 275.03 196.154 L 275.03 339.9 L 296.129 339.9" fill="white"/><mask id="_mask_sHd2BIE320lF0eXAAd9Svirn6WoVdtj4" x="-200%" y="-200%" width="400%" height="400%"><rect x="-200%" y="-200%" width="400%" height="400%" style="fill:white;"/><path d=" M 296.129 196.154 L 317.227 196.154 L 317.227 339.9 L 296.129 339.9" fill="white" stroke="none"/></mask><path d=" M 296.129 196.154 L 317.227 196.154 L 317.227 339.9 L 296.129 339.9" fill="white" mask="url(#_mask_sHd2BIE320lF0eXAAd9Svirn6WoVdtj4)" vector-effect="non-scaling-stroke" stroke-width="1.5" stroke="white" stroke-linejoin="miter" stroke-linecap="butt" stroke-miterlimit="4"/><path d=" M 296.129 196.154 L 317.227 196.154 L 317.227 339.9 L 296.129 339.9" fill="white"/></g><mask id="_mask_agyb5BsNB6Qzosx3UV6hdDO1yBzmdbLB" x="-200%" y="-200%" width="400%" height="400%"><rect x="-200%" y="-200%" width="400%" height="400%" style="fill:white;"/><path d=" M 504.92 167.343 L 465.444 167.343 L 465.444 340.412 L 505.226 340.412 L 504.92 167.343 Z " fill="white" stroke="none"/></mask><path d=" M 504.92 167.343 L 465.444 167.343 L 465.444 340.412 L 505.226 340.412 L 504.92 167.343 Z " fill="white" mask="url(#_mask_agyb5BsNB6Qzosx3UV6hdDO1yBzmdbLB)" vector-effect="non-scaling-stroke" stroke-width="1.5" stroke="white" stroke-linejoin="miter" stroke-linecap="butt" stroke-miterlimit="4"/><path d=" M 504.92 167.343 L 465.444 167.343 L 465.444 340.412 L 505.226 340.412 L 504.92 167.343 Z " fill="white"/><g><mask id="_mask_IJbkyFFYRZ3YHroaYbcrD2rg8q4GxDVj" x="-200%" y="-200%" width="400%" height="400%"><rect x="-200%" y="-200%" width="400%" height="400%" style="fill:white;"/><path d=" M 204.629 196.154 L 183.53 196.154 L 183.53 339.9 L 204.629 339.9" fill="white" stroke="none"/></mask><path d=" M 204.629 196.154 L 183.53 196.154 L 183.53 339.9 L 204.629 339.9" fill="white" mask="url(#_mask_IJbkyFFYRZ3YHroaYbcrD2rg8q4GxDVj)" vector-effect="non-scaling-stroke" stroke-width="1.5" stroke="white" stroke-linejoin="miter" stroke-linecap="butt" stroke-miterlimit="4"/><path d=" M 204.629 196.154 L 183.53 196.154 L 183.53 339.9 L 204.629 339.9" fill="white"/><mask id="_mask_4t6GByiKTabzgvEykbwxa3260qwRNELr" x="-200%" y="-200%" width="400%" height="400%"><rect x="-200%" y="-200%" width="400%" height="400%" style="fill:white;"/><path d=" M 204.629 196.154 L 225.727 196.154 L 225.727 339.9 L 204.629 339.9" fill="white" stroke="none"/></mask><path d=" M 204.629 196.154 L 225.727 196.154 L 225.727 339.9 L 204.629 339.9" fill="white" mask="url(#_mask_4t6GByiKTabzgvEykbwxa3260qwRNELr)" vector-effect="non-scaling-stroke" stroke-width="1.5" stroke="white" stroke-linejoin="miter" stroke-linecap="butt" stroke-miterlimit="4"/><path d=" M 204.629 196.154 L 225.727 196.154 L 225.727 339.9 L 204.629 339.9" fill="white"/></g><g><mask id="_mask_iEDsw8kRR2Q16Ubn5ekf2THBdAoo8xC5" x="-200%" y="-200%" width="400%" height="400%"><rect x="-200%" y="-200%" width="400%" height="400%" style="fill:white;"/><path d=" M 386.129 196.154 L 365.03 196.154 L 365.03 339.9 L 386.129 339.9" fill="white" stroke="none"/></mask><path d=" M 386.129 196.154 L 365.03 196.154 L 365.03 339.9 L 386.129 339.9" fill="white" mask="url(#_mask_iEDsw8kRR2Q16Ubn5ekf2THBdAoo8xC5)" vector-effect="non-scaling-stroke" stroke-width="1.5" stroke="white" stroke-linejoin="miter" stroke-linecap="butt" stroke-miterlimit="4"/><path d=" M 386.129 196.154 L 365.03 196.154 L 365.03 339.9 L 386.129 339.9" fill="white"/><mask id="_mask_bdXYbZwuyDTuE6QhJMbwsN52A8apHDj9" x="-200%" y="-200%" width="400%" height="400%"><rect x="-200%" y="-200%" width="400%" height="400%" style="fill:white;"/><path d=" M 386.129 196.154 L 407.227 196.154 L 407.227 339.9 L 386.129 339.9" fill="white" stroke="none"/></mask><path d=" M 386.129 196.154 L 407.227 196.154 L 407.227 339.9 L 386.129 339.9" fill="white" mask="url(#_mask_bdXYbZwuyDTuE6QhJMbwsN52A8apHDj9)" vector-effect="non-scaling-stroke" stroke-width="1.5" stroke="white" stroke-linejoin="miter" stroke-linecap="butt" stroke-miterlimit="4"/><path d=" M 386.129 196.154 L 407.227 196.154 L 407.227 339.9 L 386.129 339.9" fill="white"/></g><path d=" M 12.164 397.922 C 12.384 392.146 13.707 390.344 25.667 388.597 C 25.108 380.949 40.393 380.407 40.393 380.407 L 88.262 379.251 C 96.421 375.913 95.54 373.767 105.117 374.308 C 109.141 374.123 110.042 370.429 112.911 370.988 L 144.82 370.246 C 147.029 358.566 159.017 371.097 163.119 365.211 C 164.894 361.774 175.956 361.755 175.956 361.755 L 235.865 361.96 C 240.112 356.457 245.612 360.914 247.836 360.38 L 266.727 359.428 C 273.481 362.044 269.614 366.696 278.176 369.679 C 288.992 372.356 290.016 359.85 296.129 360.384 C 302.94 363.304 303.425 370.753 311.752 370.335 C 318.705 372.964 321.996 362.683 324.66 362.986 C 332.592 363.059 340.521 362.903 348.45 362.776 C 354.491 362.679 354.038 366.748 356.58 366.992 L 417.749 366.361 L 421.188 371.728 C 431.36 374.739 427.751 366.893 435.375 366.693 C 438.82 366.768 441.672 371.481 444.914 371.444 C 448.479 372.484 448.65 364.348 450.527 363.375 C 453.577 359.775 458.096 368.273 459.332 370.291 C 463.385 375.773 471.052 367.984 483.417 369.78 C 486.045 370.454 485.251 366.959 486.479 367.239 C 489.562 365.892 494.007 370.858 494.007 370.858 C 498.741 371.905 498.301 363.503 502.949 363.454 C 506.635 362.562 509.999 366.168 510.677 369.921 C 519.249 372.531 538.049 369.732 542.517 372.187 C 552.282 377.089 553.549 374.097 567.303 374.184 C 569.986 374.151 571.11 378.787 571.11 378.787 C 578.928 378.067 572.999 381.846 574.629 383.426 C 581.638 385.557 582.764 386.121 584.056 394.433 C 576.77 417.234 557.101 414.785 541.238 413.525 C 535.843 411.902 535.503 409.208 532.97 407.603 C 524.531 407.324 482.713 407.051 482.713 407.051 C 479.434 405.272 477.095 402.177 477.259 401.982 L 447.943 401.941 C 445.808 395.097 441.061 401.804 439.933 404.854 C 435.529 405.831 427.875 405.058 427.875 405.058 C 425.348 401.921 414.86 403.722 410.58 403.722 C 407.795 416.912 400.979 397.285 398.042 397.847 L 328.632 398.75 C 325.638 398.579 328.233 402.88 325.413 403.663 L 286.451 403.481 C 280.86 398.625 283.878 394.368 276.42 394.012 C 264.53 408.352 259.726 403.196 250.228 393.712 C 250.228 393.712 231.845 391.305 227.029 394.201 C 216.417 407.427 209.681 403.472 197.039 398.188 L 156.916 399.035 C 153.953 399.133 153.321 403.22 151.523 405.313 C 145.403 407.109 142.647 406.454 141.751 400.969 C 132.907 406.19 135.952 405.798 128.117 398.328 L 115.999 398.286 C 105.733 407.465 115.687 405.594 98.476 405.771 C 93.603 408.711 89.037 406.549 83.772 405.451 C 72.567 404.96 68.163 403.8 58.493 408.145 C 54.535 408.246 54.005 408.685 52.413 412.01 C 44.623 412.947 41.055 408.929 41.055 408.929 C 32.133 409.62 12.643 409.172 12.164 397.922 L 12.164 397.922 Z " fill="white"/></g></g></svg>
